<?xml version="1.0" encoding="UTF-8"?>
<svg version="1.1" viewBox="0 0 1600 1600" width="1280" height="1280" xmlns="http://www.w3.org/2000/svg">
<path transform="translate(1084,285)" d="m0 0h22l22 2 21 4 24 8 23 11 19 12 13 10 14 12 12 12 11 14 12 18 10 19 7 18 6 24 3 24 1 26v86l3 40 3 16 6-1 15-6 13-1 4 1 2-6 4-9h2l-1 6-5 9-1 1v16l-4 10-6 8-8 7-7 5 4 10 13 22 12 16 11 13 22 22 11 9 14 12 10 8 12 11 8 7 14 14 7 8 12 14 13 18 9 15 12 23 10 24 7 23 5 26 3 22 2 24v19l-1 3-1 19-4 24-7 27-7 19-10 21-14 22-9 12-11 13-7 8-6 7-4 4h-2l-1 3h-2l-1 3-8 7-8 8-14 11-12 10-17 12-15 10-21 12-16 8-15 7-26 10-43 12-47 10-33 5-37 4-27 2-20 1h-74l-34-2-49-5-136-17-101-11-56-4-143-7-64-4-44-4-47-6-38-7-36-9-30-10-29-12-24-12-18-11-16-12-14-11-14-14-10-13-8-13-9-17-10-26-5-20-3-18-1-12v-25l3-20 6-23 7-21 10-23 11-19 11-16 18-20 7-7 8-7 8-8 10-14 8-17 4-14 2-14v-31l-4-27-6-30-3-22v-37l4-23 5-17 8-18 8-14 11-14 4-5 8-7 13-10 14-8 13-6 21-6 15-2 19-2 15-3 14-5 15-8 12-9 19-19 10-14 11-19 9-20 9-28 8-33 8-21 9-15 9-10 4-5 11-9 13-8 15-6 17-4 7-1h23l20 3 21 6 25 10 33 15 24 9 23 6 15 3 21 2h38l26-2 19-3 21-5 36-12 34-14 33-14 27-10 22-7 22-6 29-6 24-3z" fill="#95797B"/>
<path transform="translate(858,591)" d="m0 0 5 2 14 11 12 12 11 14 15 25 3 6v3l11-8 4-2h12l9 6 7 8 4 9v15l-4 10-6 10-10 10-10 5-2 20-4 17-6 16-9 17-9 12-15 15h9l18 2 20 7 15 8 15 11 12 11 10 10 6 8v2h2l10 15 10 16 12 23 8 17 10 28 7 26 5 26 1 11 417-2h51l5 1v19l-4 24-7 27-7 19-10 21-14 22-9 12-11 13-7 8-6 7-4 4h-2l-1 3h-2l-1 3-8 7-8 8-14 11-12 10-17 12-15 10-21 12-16 8-15 7-26 10-43 12-47 10-33 5-37 4-27 2-20 1h-74l-34-2-49-5-136-17-101-11-56-4-143-7-64-4-44-4-47-6-38-7-36-9-30-10-29-12-24-12-18-11-16-12-14-11-14-14-10-13-8-13-9-17-10-26-5-20-3-18-1-12v-25l1-9h27l571 2-1 14v12l3 24 6 29 10 33 10 28 2 3 2 8 5 13 6 21 3 2 9-1v-2h8v2l9 3 9 5 5 2 18 1h21l4 7 5 2v2l21 3h17l2-6 3-5 6-1 5-7h15l5 5 2 1 1-2 5 1 5 4 3 1 2-16 2-21 8 1 14 2 2 1 10 1h16l21-3 9-3 11-3 14-7 3-2h3v-2h3v-2h3v-2l4-1v-2l5-3 6-7 4-9 2-11v-17l-3-17-6-18-11-21-10-14-12-14-9-10-14-13-10-8-4 2-12 9-12 5-14 4-13 2h-48l-27-2-24-4-22-6-11-4-4-1-21 8-19 6-21 4h-24l-12-3-11-8-7-14-1-10 2-14 5-17 7-14 13-19 10-13 10-11 9-11 14-15 11-10 8-7 9-6-26-2-18-3-16-5-19-9-12-9-7-6-10-13-8-14-1-2-10-3-10-6-9-11-5-10v-15l3-1 15 6-14-38-6-23 1-5 9-10 12-17 8-13 10-18 2-1-3 9-8 16-12 21-9 13-1 3 6-5 10-14 10-18 9-21 3-10h1l-1 9-6 17-10 22v2l5-5 9-19 7-21 3-14 2-18 4 2 9 7 15 8 16 5 17 3h27l19-4h-38l-25-5-20-8-1-2 6 1 17 5 12 2h32l45-6 21-5 18-6 11-4 1-2-31 10-8 2-4-1 26-10 17-9z" fill="#E4E3DD"/>
<path transform="translate(858,591)" d="m0 0 5 2 14 11 12 12 11 14 15 25 3 6v3l11-8 4-2h12l9 6 7 8 4 9v15l-4 10-6 10-10 10-10 5-2 20-4 17-6 16-9 17-9 12-15 15h9l18 2 20 7 15 8 15 11 12 11 10 10 6 8v2h2l10 15 10 16 12 23 8 17 10 28 7 26 5 26 1 11h124v1l-123 1 3 24 30-2 23-1h38l31 1 28 2 35 4 33 6 28 7 24 8 17 8 10 8 6 7 2 9-2 8-6 8-3 1v2l-10 7-19 9-16 7-28 8-19 4-23 3-11 1h-15l-1-3-14 5-6 1h-14l-16-4h-8l-35 5-27 6-18 6-18 8-15 8-14 10-15 14-9 10-14 15-11 10-13 9-8 5-16 7-21 6-19 4-15 2-16 1h-25l-43-4-41-6-39-5-29-6-22-8-15-8-10-9-6-8-1-4v-12l4-12 10-7 21-10 8-7 3-9 3-14 4-4h2l1-3 5 12 5 16 3 7 6 21 3 2 9-1v-2h8v2l9 3 9 5 5 2 18 1h21l4 7 5 2v2l21 3h17l2-6 3-5 6-1 5-7h15l5 5 2 1 1-2 5 1 5 4 3 1 2-16 2-21 8 1 14 2 2 1 10 1h16l21-3 9-3 11-3 14-7 3-2h3v-2h3v-2h3v-2l4-1v-2l5-3 6-7 4-9 2-11v-17l-3-17-6-18-11-21-10-14-12-14-9-10-14-13-10-8-4 2-12 9-12 5-14 4-13 2h-48l-27-2-24-4-22-6-11-4-4-1-21 8-19 6-21 4h-24l-12-3-11-8-7-14-1-10 2-14 5-17 7-14 13-19 10-13 10-11 9-11 14-15 11-10 8-7 9-6-26-2-18-3-16-5-19-9-12-9-7-6-10-13-8-14-1-2-10-3-10-6-9-11-5-10v-15l3-1 15 6-14-38-6-23 1-5 9-10 12-17 8-13 10-18 2-1-3 9-8 16-12 21-9 13-1 3 6-5 10-14 10-18 9-21 3-10h1l-1 9-6 17-10 22v2l5-5 9-19 7-21 3-14 2-18 4 2 9 7 15 8 16 5 17 3h27l19-4h-38l-25-5-20-8-1-2 6 1 17 5 12 2h32l45-6 21-5 18-6 11-4 1-2-31 10-8 2-4-1 26-10 17-9z" fill="#739DB4"/>
<path transform="translate(736,421)" d="m0 0h11v2l-27 6-18 6-19 10-12 9-17 17-13 18v3l11-10 17-12 18-10 19-9 27-9 27-5 7-1 17-1h27l23 2 29 6 29 10 15 8 3 4-6-1-10-5-16-6-15-5-22-5h-7l23 7 15 6 22 12 14 10 7 7 2 4v3l-18-2 8 6 15 13 16 16 9 11 10 15 6 11v4l-5-2-9-5 7 12 9 21 5 17 3 22v20l-2 16-4 18-2-4-4-11-4-6-8-7-4-2h-12l-10 6-3 3h-2l-8-16-11-18-9-11-9-10-11-10-10-7-4 2-12 9-21 10-17 6 17-4 21-7h3l-1 3-22 8-22 6-42 6-9 1h-32l-20-4-11-4h-3l20 8 25 5h40l-2 2-19 4h-27l-21-4-16-6-11-6-9-7-4-3-1 18-5 21-8 21-8 15-5 3 1-5 9-20 6-17v-3l-5 14-9 19-10 16-9 11-4 2 1-4 11-17 12-21 8-18-3 4-9 17-13 19-8 10-7 9 2 11 6 21 11 29v3l-10-3-9-4-14-10-12-11-7-7-8-10-7-11-3-5 9 25 10 19v3l-4-2-11-21-9-24-5-24-3-19v-15l3-27 5-21 7-19 8-16 4-7-8 8-9 11-10 14-8 16-10 25-3-1 3-10 5-12 12-23 9-13 9-11 11-11 14-11 11-9-14 5-16 8-20 11-25 15-3-1 3-10 6-10 8-9 11-8 16-8 18-6 19-4 22-2 2-6 10-13 10-19 9-12 12-13 8-7 14-10 17-9 21-7z" fill="#583825"/>
<path transform="translate(858,591)" d="m0 0 5 2 14 11 12 12 11 14 15 25 3 6v3l11-8 4-2h12l9 6 7 8 4 9v15l-4 10-6 10-10 10-10 5-2 20-4 17-6 16-9 17-9 12-20 20-4 2-7 7-4 16-7 16-9 11-8 7-10 6-10 4-9 2h-16l-10-3-6-4-7-6-1-4h-2l-3-6h-32l-23-3-17-5-18-8-11-7-11-9-11-14-8-14-1-2-10-3-10-6-9-11-5-10v-15l3-1 15 6-14-38-6-23 1-5 9-10 12-17 8-13 10-18 2-1-3 9-8 16-12 21-9 13-1 3 6-5 10-14 10-18 9-21 3-10h1l-1 9-6 17-10 22v2l5-5 9-19 7-21 3-14 2-18 4 2 9 7 15 8 16 5 17 3h27l19-4h-38l-25-5-20-8-1-2 6 1 17 5 12 2h32l45-6 21-5 18-6 11-4 1-2-31 10-8 2-4-1 26-10 17-9z" fill="#EFC2A6"/>
<path transform="translate(964,1026)" d="m0 0 5 2 13 12 8 7 8 8 9 11 12 15 10 18 6 13 5 17 2 13v17l-3 14-6 10-3 1-1 3-5 2v2l-4 1v2h-3v2h-3v2l-22 11-9 2-9 3-21 3h-16l-10-1-2-1-14-2-8-2v10l-2 23-2 4-4-1-5-4-4-1-1 3-7-6h-15l-4 6-4 2h-3l-3 5-2 6h-17l-18-3-3-1v-2l-5-1-3-4-1-3h-21l-18-1-16-8-7-3v-2h-8v2l-5 2-5-1-3-2-7-24-5-12-2-8-5-12-12-36-5-18-5-25-3-24v-12l2-14 15 3h24l21-4 33-11 7-3 4 1 21 7 17 4 19 3 27 2h48l17-3 18-6 11-7z" fill="#58626A"/>
<path transform="translate(1117,1068)" d="m0 0h38l31 1 28 2 35 4 33 6 28 7 24 8 17 8 10 8 6 7 2 9-2 8-6 8-3 1v2l-10 7-19 9-16 7-28 8-19 4-23 3-11 1h-15l-1-3-14 5-6 1h-14l-16-4h-8l-35 5-27 6-18 6-18 8-15 8-14 10-15 14-9 10-14 15-11 10-13 9-8 5-16 7-21 6-19 4-15 2-16 1h-25l-43-4-41-6-39-5-29-6-22-8-15-8-10-9-6-8-1-4v-12l4-12 10-7 21-10 8-7 3-9 3-14 4-4h2l1-3 5 12 5 16 3 7 6 21 3 2 9-1v-2h8v2l9 3 9 5 5 2 18 1h21l4 7 5 2v2l21 3h17l2-6 3-5 6-1 5-7h15l5 5 2 1 1-2 5 1 5 4 3 1 2-16 2-21 8 1 14 2 2 1 10 1h16l21-3 9-3 11-3 14-7 3-2h3v-2h3v-2h3v-2l4-1v-2l5-3 6-7 3-6 5-4 8-16 7-21 4-21 1-40 31-2z" fill="#C4C2BB"/>
<path transform="translate(871,865)" d="m0 0h10l5 8 3 8 2 17v9l-4 13-6 8-6 2-4 1h-7l-1-1h-19l-42 3-22 4-31 10-3 3 19-4 30-3h26l8 1v2l13-4 15-2h19l10 3 12 8v2l4 2 7 9 3 7v6l-3 2-9-1-7-5v-2h-3v-2l-4-1-4-2 5 4 8 10 3 7-1 7-7 1-12-6-7-3-5-4v2l4 2 8 9 3 5v4l-4 2h-9l-7-5-7-3 8 7 1 6-5 5-8-1-11-5-6-3v-2l-4-1-5-3-8 1-5 2 1 8-4 5-4 1-3 3-12 5-9 4-10 4-19 7-21 6-16 3h-24l-12-3-11-8-7-14-1-10 2-14 5-17 7-14 13-19 10-13 10-11 9-11 14-15 11-10 8-7 9-6 7-2h8l3 4v3h2l2 4 10 8 7 3 5 1h16l15-4 11-6 10-8 8-10 5-2z" fill="#84B1C7"/>
<path transform="translate(775,1031)" d="m0 0 4 1 6 3-4 2-2 7-2 10v44l4 35 6 35 4 26 4 24 2 16 3 8-7 2h-14l-18-1-16-8-7-3v-2h-8v2l-5 2-5-1-3-2-7-24-5-12-2-8-5-12-12-36-5-18-5-25-3-24v-12l2-14 15 3h24l21-4 33-11z" fill="#586269"/>
<path transform="translate(940,849)" d="m0 0h10l9 3 9 6 8 7 11 15 5 16v35l-2 16-4 23-6 23-7 20-4 9-2 2v2l-5 3-12 9-12 5-14 4-13 2h-48l-27-2-24-4-22-6-11-4v-2l16-6 10-5h2v-2l8-4 8-5 5 2 14 7 13 3h8l4-3h2l1-10 10-1 8-4 3-6 11-2 3-5v-5l8-3h4v-5l1-1h6l6 2 3-2v-8l-5-2-18-12-10-6-2-4 1-15 2-18v-15l3-13 8-13 11-12 9-6z" fill="#84B1C7"/>
<path transform="translate(971,1032)" d="m0 0 5 2 17 16 11 12 11 14 7 10 12 23 6 20 2 13v17l-3 14-6 10-3 1-1 3-5 2v2l-4 1v2h-3v2h-3v2l-22 11-9 2-9 3-21 3h-16l-10-1-14-4-9-3-1-4-2-16-1-24-3-33-3-24-3-17-6-25-3-10 5 2 6 11 5 10 6 18 3 10v4l2-1-1-14-2-20h5l8 9 8 14 7 19 8 26 3 7 4 2 8-1 10-9 5-6 10-21 3-9v-30l-1-9-3-7-5-17-4-7z" fill="#485257"/>
<path transform="translate(478,1122)" d="m0 0h32l21 3 20 5 16 6 11 7 8 7 4 7v10l-4 8-4 5-10 7-13 6-20 6-17 3-21 2h-24l-24-3-21-5-16-6-11-6-8-7-5-12v-7l4-8 8-7 15-8 21-7 21-4z" fill="#FCFCFC"/>
<path transform="translate(393,1172)" d="m0 0 5 5 7 6 15 8 19 6 21 4 17 2h24l28-3 21-5 16-6 11-6 5-4 6-7 1 3-5 18-4 9h-2l-2 5-8 11-8 9-1 3 2 1 24 3 17 3 12 3 4 5-1 4-5 4-18 6-27 5-37 4h-40l-26-3-20-4-9-4-7-5v-7l5-4h2v-3l-5-2-15-14-9-13-7-14-6-14z" fill="#BBB6B2"/>
<path transform="translate(730,1230)" d="m0 0h8v2l9 3 9 5 5 2 18 1h21l4 7 5 2v2l21 3h17l2-6 3-5 6-1 5-7h15l5 5 2 1 1-2 5 1 5 6 2 1-2 4-4 12-4 6-11 7-9 3-26 6-19 4-10 3h-20l-10-3-16-7-7-3-9-3-3-2-12 1h-11l-18-4-9-3-4-6-1-7 5-8 9-7 10-9 4-1 9-1z" fill="#EFC2A6"/>
<path transform="translate(990,878)" d="m0 0 5 3v2h2l10 15 10 16 12 23 8 17 10 28 7 26 5 26 1 11h124v1l-123 1 2 17v47l-4 21h-1l-5-27-7-19-9-17-10-14-14-19-10-16-4-7-3-13v-33l3-29 1-14v-19l-2-10-7-14z" fill="#86B1C6"/>
<path transform="translate(903,509)" d="m0 0 8 2 6 3v2l6 2 6 5v2h2v2h4l2 4 5 2v2l4 2 5 5 9 14 3 6v4l-5-2-9-5 7 12 9 21 5 17 3 22v20l-2 16-4 18-2-4-4-11-4-6-8-7-4-2h-12l-10 6-3 3h-2l-8-16-11-18-9-11-9-10-11-10-10-7v-2l4 2 9 4 9 6 6 3v2h4v2l4 1 3 1 4 4v2h2l6 8 5 4v2l4 2h8l1-2-5-11-3-6-3-9-4-5-8-7-5-5-9-8-2-1v-2h7l11 3 2 2h7l6-2 3-3-1-4-4-5-4-2-10-16-5-5 1-2 16 8 1 1h5v-5l-4-8v-2h-2l-9-15-6-7-2-4z" fill="#3C2319"/>
<path transform="translate(857,940)" d="m0 0h19l10 3 12 8v2l4 2 7 9 3 7v6l-3 2-9-1-7-5v-2h-3v-2l-4-1-4-2 5 4 8 10 3 7-1 7-7 1-12-6-7-3-5-4v2l4 2 8 9 3 5v4l-4 2h-9l-7-5-7-3 8 7 1 6-5 5-8-1-11-5-6-3v-2l-4-1-5-3-8 1-1 1h-6l-3-4-2-6v-19l6-11h2l2-5 4-6 11-6 13-4z" fill="#ECC2A7"/>
<path transform="translate(511,1127)" d="m0 0 13 1 22 5 15 5 12 6 8 7 4 8v6l-4 8-8 7-15 8-15 5-13 3-16 2-20 1-3-1 1-4 10-15 6-18 1-7v-24z" fill="#E5E4DE"/>
<path transform="translate(1070,721)" d="m0 0h44l43 1 2 2v23l-1 10-1 1-38 1h-31l-33-1-3-2v-19l3-8 5-5z" fill="#B9816D"/>
<path transform="translate(373,945)" d="m0 0h40l44 2 9 1 1 1v33l-48 1-58-1v-35l1-1z" fill="#CB9074"/>
<path transform="translate(311,904)" d="m0 0h64l37 1v13l-1 22-2 1h-93l-8-1-1-6 1-25 1-4z" fill="#B9816D"/>
<path transform="translate(558,1228)" d="m0 0 3 3 24 3 17 3 12 3 4 5-1 4-5 4-18 6-27 5-37 4h-40l-26-3-20-4-9-4-7-5v-7l5-4h2v-3l-5-2-2-3 5 2 8 6 5 5 2 6 5 3 9 3 19 3h20l20-2v-2l12-3 3-3 2-7 12-8 5-5z" fill="#C4C2BB"/>
<path transform="translate(775,1031)" d="m0 0 4 1 6 3-4 2-2 7-2 10v44l4 35 6 35 4 26 4 24 2 16 3 8-8 1 1-2v-8l-8-33-2-8-5-14-9-34-7-38-2-22-1-29h-3v-3h-2v-3l4-1v-2l9-6v-2l-5 1-4 2-1-3z" fill="#495358"/>
<path transform="translate(1137,847)" d="m0 0 3 3 14 22 7 6 31 15 7 3 1 5v24l6 16 9 19 5 3 5-1 10-9 8-10h2l2-4 3-4 3-16 3-5 7-4 19-3 10-6 9-7v3l-14 11-7 3-17 4-4 3-1 3v9l1 2-2 7-5 5-10 12-7 8-4 5v2l10 6 3 1v2l5 2 19 13 4 3 10 22 8 20 1 4h-29v-21l1-15-17-14-20-16-13-11-3-4-12-31-3-8 2-26-6-1-19-10-13-7-7-6-15-25z" fill="#583724"/>
<path transform="translate(1354,619)" d="m0 0h2l-1 6-5 9-1 1v16l-4 10-6 8-8 7-8 6-17 5h-11l-4-3v-7l11-23 6-9 2-4 6-1 15-6 13-1 4 1 2-6z" fill="#B9816D"/>
<path transform="translate(313,1149)" d="m0 0h11l11 4 11 7 11 10 6 3 9-2 2 1-1 4-7 2-9 2-5 4-11 4-6 1h-14l-10-3-10-5-4-5v-8l-7-11 1-3 16-4z" fill="#C4C2BB"/>
<path transform="translate(971,1032)" d="m0 0 5 2 17 16 11 12 11 14 7 10 12 23 6 20 2 13v17l-3 14-6 10-3 1-1 3-5 2v2l-4 1v2h-3v2h-3v2l-22 11h-5l6-9 5-5 10-5 6-5 1-2h2v-2l4-1v-2h2l2-6 2-3h-4l-2-3 5-2 5-1 3-7-1-5-1-1v-9l-3-6-1-10-3-3-1-4-1-14-9-14-5-4-5-8-6-6-10-4 3-3v-1l-4-6-4-9-2-2-3-5-6-5z" fill="#494E55"/>
<path transform="translate(296,329)" d="m0 0h16l11 4 10 6 5 5 3 4 10-1 8-1-1 3-10 3-7 1-8 7-11 4h-18l-14-5-11-8-9-11v-2z" fill="#B8816D"/>
<path transform="translate(583,688)" d="m0 0 2 1 3 15 4 12 7-6 4-6 6-4 3-5 6-5 1 3-14 18 2 11 6 21 11 29v3l-10-3-9-4-14-10-6-8-2-9-4-20v-13l2-9 1-9z" fill="#3D2319"/>
<path transform="translate(719,1088)" d="m0 0h3l12 29 5 14-1 4-6 4-19 6h-2l-9-14-8-15-5-12 1-4 15-7z" fill="#495358"/>
<path transform="translate(880,829)" d="m0 0 2 1-8 8-4 16-7 16-9 11-8 7-10 6-10 4-9 2h-16l-10-3-6-4-7-6-1-4h-2l-2-5 1-4h12l6 7 9 5 11 1 10-2 10-5 7-6h2l2-4 7-10 4-9 5-5 14-12 5-4z" fill="#E4E3DD"/>
<path transform="translate(295,683)" d="m0 0h2l-1 5-7 8-5 15-11 12-8 5-9 3-12 1-14-1-4-2 2-5 5-8 6-10 5-5h2v-2l12-5 12-2h9l2 1h6l6-7z" fill="#593825"/>
<path transform="translate(941 1e3)" d="m0 0 3 2 6 18 4 6v9l-10 6-20 6-13 2h-48v-1l11-1 3-5 6-5 5-5h9l4 2h6v-2h2l2-4 5-3h5v6l6-3 5-5 3-5v-12l3-5z" fill="#739EB5"/>
<path transform="translate(1031,983)" d="m0 0h8l3 7 4 24v11l-4 5-3 1h-22l-4-5-4-16-1-7v-11l2-5 5-2z" fill="#CD9175"/>
<path transform="translate(1118,686)" d="m0 0 16 3 9 1 2-1 17 2 6 1 1 4h5v2h2v-2l7-2 1 2-1 3 3 3-6 4-1 3h-9l-10 3-14 1h-24l-1 1h-5l-2-3v-19z" fill="#B8806D"/>
<path transform="translate(867,1238)" d="m0 0h11l5 5 2 1 1-2 5 1 5 6 2 1-2 4-4 12-4 6-11 7-9 3-26 6-19 4-10 3h-20l-7-3 1-2 7 1 6-4 2-3-10 3-5 2 2-4 2-3-9 3-5 2-1-3 8-6 8-1 12 4 2 2 4 2-8 7 4 1 8-3 8-5 19-6 26-7 8-4v-4l-3-4v-5h2v-10l-1-4h-5z" fill="#E8B694"/>
<path transform="translate(677,769)" d="m0 0h15l1 2-5 2v7h6l2-7 4 2 5 8v14l-4 7-6 4-3 1h-14l-8-4-5-6-2-4v-11l5-8 7-6z" fill="#3E251C"/>
<path transform="translate(824,705)" d="m0 0h12v2l-2 1 1 6 5 1 2-5 4 1 5 8 1 2v9l-4 9-5 4-5 2h-13l-8-3-6-7-1-2v-15l4-6 6-5z" fill="#3E251C"/>
<path transform="translate(826,694)" d="m0 0h13l8 4 5 4v2l3 1 2 3v6h2v15l-2 7 9 8v4h-5l-4-4-3-1 6 8 4 4-2 6-5-1-4-5-4-8-5 1h-9l-10-1v-1l12-1 9-5 3-5 2-5v-9l-5-9-4-2-1 5-5 1-3-4 1-5h2v-2l-12 1-8 5-4 5-1 2-1 16-3-3-2-5v-13l3-8 8-7 5-3z" fill="#F5F4F3"/>
<path transform="translate(764,876)" d="m0 0h8l3 4v3h2l4 8-9-3-7-2-6 1-4 4-3 5-5 19-5 34v2l-20 6-19 8-11 6-10 9-8 10-1-4 6-11 9-8h2v-2l9-6h2v-2l12-8 16-6h4l4-20 5-13 5-14-1-5-10 5 4-5 8-7 9-6z" fill="#739EB5"/>
<path transform="translate(414,946)" d="m0 0h22v1l-15 1 2 8-3 3-2 4-5 2-2 6-9 4-8 2h-8v2l-9-1v2l-7-1-3-8v-6l2-7 1-4 4-1h3l3-1 3 1 9-2h11l9-2z" fill="#B9816D"/>
<path transform="translate(845,601)" d="m0 0 2 1v2 3h2l-1 4-7 6-16 7-4 2-12 3-6 2h-5v2l-22 6-7 2-18 3h-30l-11-2v-1l12 1h27l19-4h-38l-25-5-20-8-1-2 6 1 17 5 12 2h32l45-6 21-5 18-6 11-4 1-2-31 10-8 2-4-1 26-10z" fill="#D9A487"/>
<path transform="translate(993,1161)" d="m0 0 1 3 1 5 6-1-1 5-4 2-4 4h4 4l-1 4-4 2-1 6v2l-6 3-11-1-11 6-6 2-4-2-10-2-2-2 1-5 5-3h2l-3-5-1-3 14-4 10-1 1-3h6l3-4 6-3 1-4z" fill="#484D54"/>
<path transform="translate(678,758)" d="m0 0h15l8 4 6 5 3 4 3 8v11l-4 10-8 9-9 5-6 12h-4v-10l-1-3-5-2v-2l-4-1 3-1 3 1h14l8-4 4-7v-14l-5-8-3-2v6l-2 2-6-1-1-7 5-3h-15l-6 4-5 6-2 4v15l-4-4-2-9 1-6 3-11 5-5 5-4z" fill="#F5F4F2"/>
<path transform="translate(744,986)" d="m0 0 4 1 7 8 9 10 6 5-1 4-12 9-9 6-4-2-10-11-9-13 1-5 17-11z" fill="#95797C"/>
<path transform="translate(1168,724)" d="m0 0h7l7 1h12l10 3v2h-8l3 6 1 3h2l1 6 10 1 3 2v2h2l-1 4-8 1-3-1v-2l-18 2h-16l-4-2v-8l-2-17z" fill="#B9816D"/>
<path transform="translate(607,524)" d="m0 0h8l-2 4-8 4-16 5-12 5-23 12-17 10-15 9-1-4 7-11 9-10 14-9 15-6 21-6z" fill="#91777B"/>
<path transform="translate(902,722)" d="m0 0 4 2 12 11 3 3-4 8-2 3-2 6-6 4-13 2h-8l-3-2-1-6h-5l-1 4-4-1-2-1-1-5h2l1-7 6-2h6l-1-5 11 1 1-3-1-3 4 1 8 4 1-5-3-6z" fill="#E1AE8E"/>
<path transform="translate(661 1e3)" d="m0 0 2 1v2l2-2 1 7h3l6-1v7l14-8h5l2 2v12l4 10-1 4-3 3-10 5h-8l-7-5-3-7v-13l-2 1-2 3-1-4h-2l-1 2-1-5z" fill="#739EB5"/>
<path transform="translate(1198,1152)" d="m0 0h18l11 4-1 4-18 10-14 6-16 4-7 2-9 1v-3l5-4 8-10 6-7 9-5z" fill="#593825"/>
<path transform="translate(898,636)" d="m0 0 4 1 3 1 11 19 2 4v3l2 1 2 9 4 12 3 10-5-5-10-12-19-4-3-4-2-7v-10l4-9 3-3z" fill="#CC9175"/>
<path transform="translate(451,1244)" d="m0 0 10 1 11 2 17 1 35-2 9-1 3 1-1 5-5 4-9 3-15 2h-27l-18-3-10-4-2-1v-7z" fill="#9D7C7A"/>
<path transform="translate(866,982)" d="m0 0 4 2 4 3 7 3 9 4h5l1 3-5 1-2 5-7 4-2 1h-10v8l-5 5-2 1h-8l-13-3-16-8-3-1-13 8h-3v2l-19 9-10 3-2-2 11-4 8-4 8-2 1-3h4l1-3h2l-1-11 9-3 7 1 7 4v2l6 2 11 5 8 1 4-4-1-6-10-8 2-1 14 8 1 1h9l4-1-3-7-7-9-5-4z" fill="#759AAF"/>
<path transform="translate(1021,419)" d="m0 0h15l16 8 8 7 3 3-1 4-25-1-20-4-15-5-5-2v-2z" fill="#EAB795"/>
<path transform="translate(944,867)" d="m0 0 4 4 2 4v7l-6 6-14 7-8 11-4 6h-3l-1-2-6 2-1-1 1-8 5-12 7-10 8-7 8-5z" fill="#739EB5"/>
<path transform="translate(575,1199)" d="m0 0h4l-1 5-9 13-11 12-6 5-6 3-7-2-6-5-7-2-3-3 1-5 2-1 23-1 2-8 3-4z" fill="#CD9175"/>
<path transform="translate(853,850)" d="m0 0 1 2-4 6-5 3-1 2h-2l-1 5-9 11-5 2-8 1-2 2-1 2h-5l-5-3v2l-4-2v-2l-9-1-6-5v-2l19-5 21-7z" fill="#CD9175"/>
<path transform="translate(295,1157)" d="m0 0 20 1h21l2 1v2h3v2l5 2v2l4 2 10 6-1 2-9 2h-22l-8-2-3-2v-2l-5-1-9-5-7-6z" fill="#CD9175"/>
<path transform="translate(77,1044)" d="m0 0h27l571 2v1l-405 1h-48l-135-1-9-1z" fill="#C3C1BA"/>
<path transform="translate(931,667)" d="m0 0h6l5 4 5 8 2 6v8l-7 14-4 4-4 2-3-5-4-11 1-3-6-16-2-9 1 2z" fill="#EAB795"/>
<path transform="translate(956,614)" d="m0 0h5l3 4 6 1v-5h1l2 17v20h-1l-1-16-4 3h-2l-1 18h-5l-5-1-7-1-4-2v-2l-5-1 3-5 1-5h2v-2l4-3h2v-2l4-3 3-1-1-5-2 1 1-9z" fill="#593825"/>
<path transform="translate(651,644)" d="m0 0h1l-1 9-6 17-10 22v2h2v2l-5 3v6l-4 4-1 3-4 4-6 8-4 2-1 2h-3l-1 2-4-16 1-5 9-10 12-17 8-13 10-18 2-1-3 9-8 16-12 21-9 13-1 3 6-5 10-14 10-18 9-21z" fill="#CA9075"/>
<path transform="translate(858,591)" d="m0 0 5 2 14 11 12 12 11 14 4 6-1 3-4-2-1 2-10-9-25-20-6-1-5 2-4-1 1-3h-2v-3l-2-1 5-5z" fill="#E7B594"/>
<path transform="translate(405,1197)" d="m0 0h12l10 5 2 4h2l2 5h2l6 7 6 4-1 5-9 3-5 2-5-1-14-14-9-16z" fill="#CC9075"/>
<path transform="translate(735,1045)" d="m0 0h7l-5 5-3 1-1 2h-2l-2 4-4 5-7 1h-24l-13-3h-4l-2 2-1-4v-7l1-5 15 3h24z" fill="#495358"/>
<path transform="translate(701,544)" d="m0 0 4 1 8 8 13 9 16 8 16 5 21 3h37l24-2 21-2 1 2-6 4-14 7-27 9-25 6-14 2h-30l-26-4-25-7-16-6-14-8-7-5v-2l4 1 10 7 17 8 24 7 19 4 16 2h27l19-3 28-7 23-8 8-4h2v-2l-34 4h-38l-19-2-19-5-16-7-11-7-11-9z" fill="#A47F79"/>
<path transform="translate(661,617)" d="m0 0 4 2 9 7 15 8 16 5 5 1v2l11 1h30l23-4 8-2-1 2-16 6-17 4-10 1h-9l-25-3-19-5-17-9v-2l-3-1-4-5z" fill="#E7B492"/>
<path transform="translate(811,1198)" d="m0 0 6 1 3 5h7l6 4 2 2 3 7 4 5-1 5-1 1h-7l-9-6-7 1-1 1h-7l-3-2-1-4 2-16z" fill="#484D54"/>
<path transform="translate(769,1243)" d="m0 0h31l4 8h-8l-22 12-11 7-5 4-7 3h-9l-12 1-3-2 5-2 7-2 9-4h3v-2l12-6 12-7 9-5h2v-3l-17-1z" fill="#E5B392"/>
<path transform="translate(1225,1162)" d="m0 0h4l-2 7-8 10-10 7-13 3h-14l-11-3-2-2 15-4 16-5 21-10z" fill="#593825"/>
<path transform="translate(998,432)" d="m0 0 5 1 12 5 23 5 16 1h7v3l-9 6-6 2-9 1-16-4-13-8-9-9z" fill="#EAB795"/>
<path transform="translate(1137,847)" d="m0 0 3 3 14 22 7 6 31 15 7 3 1 5v24l6 16 5 11 2 7 2 4 3 1v2h2l-1 4 4 2 15 12 11 8 11 10 4 4h-3l-14-11-11-9-10-8-13-11-3-4-12-31-3-8 2-26-6-1-19-10-13-7-7-6-15-25z" fill="#43281C"/>
<path transform="translate(1070,721)" d="m0 0h10l7 1-2 4h-4v2h-2l-1 5h-4v2l-5 5v2l-7 1h-1l-1 11h2v2l2 1h-11l-1-1v-19l3-8 5-5z" fill="#CC9074"/>
<path transform="translate(635,696)" d="m0 0 2 1-3 6 1 5 1 3v11l-4 6-9 7-2 11-2 3h-2l-1-2-2 1-5-14v-6h3l2-4 4-2 7-10h2l1-4h2l1-9z" fill="#E8B694"/>
<path transform="translate(892,1245)" d="m0 0 4 2 3 1 1-2 1 6v10l-4 10-7 8-13 4-17 4-17 3-18 3-11 3-9 1-16-3 4-1h20l18-5 14-3 26-6 10-4 5-4h2l2-4 4-11 4-7-4-2z" fill="#BAB4B0"/>
<path transform="translate(974,1204)" d="m0 0 8 1 6 2-2 3-8 3-15 3-10 1h-16l-10-1-14-4-8-3v-2h8l10 2 18 1 8-2 8-3 10 1z" fill="#505258"/>
<path transform="translate(591,523)" d="m0 0h11l-4 2-11 1v2l-21 6-17 7-13 9-10 12-4 7v3l22-13 23-13 19-9 5-2h5l-1 2h-2v2l-15 6-16 8-18 10-25 15-3-1 3-10 6-10 8-9 11-8 16-8 18-6z" fill="#4B2E1F"/>
<path transform="translate(684,623)" d="m0 0 6 1 17 5 12 2h32l9-1h13v2l-8 1v2l10-1h9v2l-10 4-23 4h-30l-11-2v-1l12 1h27l19-4h-38l-25-5-20-8z" fill="#DEAF95"/>
<path transform="translate(612,773)" d="m0 0h7l6 1 10 23 3 8v4l-6-1-6-3-5-5-6-7-5-11v-7h2z" fill="#E9B694"/>
<path transform="translate(1477,1043)" d="m0 0h51l5 1v4l-4-1h-155l-71-2v-1z" fill="#C3C0BA"/>
<path transform="translate(683,625)" d="m0 0 6 1 20 7 21 4h40l-2 2-19 4h-27l-17-3v-2l-6-1-5-3-7-3-6-4z" fill="#3F251A"/>
<path transform="translate(313,1149)" d="m0 0h11l11 4 11 7 11 10 1 4-5-2-7-5v-2l-5-2v-2h-3v-2h-30l-13-2 4 7-4-2-5-5 1-3 16-4z" fill="#E9B796"/>
<path transform="translate(971,634)" d="m0 0h1v27l-5 24-2-4-4-11-4-6-8-7-2-2 3-1h8l6 2v-15l1-3z" fill="#3E241A"/>
<path transform="translate(905,787)" d="m0 0h2l-1 11 2 1-5 7-4 3-2-1 1-5-5 3h-2l-1 5-5 8h-2l-2-5-9 2-5 5h-2l2-4 7-10 7-12 2-4h1l1 7 5 1 3-5 2 1-1 8 4-2 1-3 3-3z" fill="#D9AA90"/>
<path transform="translate(736,421)" d="m0 0h11v2l-27 6-18 6-19 10-12 9-17 17-13 18-1 3h-2l-1 3-1-4 9-15 13-15 8-8 15-11 14-8 14-6 17-5z" fill="#4A2D1E"/>
<path transform="translate(701,544)" d="m0 0 4 1 8 8 13 9 16 8 16 5 21 3h37l24-2 21-2 1 2-6 4-7 4-2-1 6-4h2v-2l-34 4h-38l-19-2-19-5-16-7-11-7-11-9z" fill="#A07E7A"/>
<path transform="translate(893,1182)" d="m0 0 3 3v18l-3 10-4 2-4-4 1-5-5 1-1-1 1-10 6-8z" fill="#95797C"/>
<path transform="translate(568,1207)" d="m0 0h6l-1 5-11 13-5 5-10 2v-2l-8 2-2-2 1-4 8-1 1-3 9-5h2l1-3z" fill="#95797B"/>
<path transform="translate(966,947)" d="m0 0 5 1 5 6v15l-5 8h-3l2-8-5 4h-4l2-10-3-4 1-7z" fill="#9D7C7A"/>
<path transform="translate(735,1045)" d="m0 0h7l-3 3-12 4-10 2-4 2h-17l-4-3h-9l-7 5h-2v-7l1-5 15 3h24z" fill="#4B5057"/>
<path transform="translate(77,1044)" d="m0 0h27l127 1v1l-9 1h-135l-9-1z" fill="#C0BDB7"/>
<path transform="translate(855,735)" d="m0 0 8 6 3 3v4h-5l-4-4-3-1 6 8 4 4-2 6-5-1-4-5-4-8-5 1h-9l-10-1v-1l12-1 9-5 9-3z" fill="#E4E2DC"/>
<path transform="translate(299,1164)" d="m0 0 12 6 3 1v2h3l3 3 9 2h25v2l-7 4-9 2h-7l-22-9-10-10z" fill="#E9B795"/>
<path transform="translate(648,646)" d="m0 0h1v8l-9 21-10 18-8 11-7 8h-2l1-4 11-17 12-21 8-18z" fill="#44291D"/>
<path transform="translate(451,1244)" d="m0 0 10 1 11 2 17 1 35-2 9-1 3 1-1 2-8 1-14 2-10 1h-24l-16-2-13-3 1 5h-2v-7z" fill="#CD9175"/>
<path transform="translate(659,624)" d="m0 0h1v11l-5 21-8 21-8 15-5 3 1-5 9-20 6-17 3-3 2-15 1-4 2-1z" fill="#43281B"/>
<path transform="translate(568,560)" d="m0 0 3 1-6 8-12 13-12 17-8 16-10 25-3-1 3-10 5-12 12-23 9-13 9-11z" fill="#492D1E"/>
<path transform="translate(450,962)" d="m0 0h8l2 4-1 7-8 3-5 1-3 1-6-2-5-1 2-7 15-5z" fill="#B9816D"/>
<path transform="translate(852,854)" d="m0 0 1 2-7 12-5 6-12 9-10 4-13 1-9-3-8-6-3-3v-2h-11v-1h12l4 5 5 1 4 1 6 5v-2l5 2h5l1-3 5-2h6l4-1 2-4 7-9 1-3h2l1-3 5-3z" fill="#DBB89F"/>
<path transform="translate(645,650)" d="m0 0 1 2-8 18-12 21-9 14-4 5-5 3h-2l-1-4 9-10 12-17 8-13 10-18z" fill="#E0AD8E"/>
<path transform="translate(806,623)" d="m0 0h8l-1 3-18 5 3 2-14 3v-2l-16 2h-7l4-1v-2l2-1h6v-2h-6v-1l35-5z" fill="#E3B090"/>
<path transform="translate(788,1277)" d="m0 0 6 1 10 3 2 2 4 2-8 7 4 3h-13l-7-3 1-2 7 1 6-4 2-3-10 3-5 2 2-4 2-3-9 3-5 2-1-3 8-6z" fill="#EAB795"/>
<path transform="translate(591,535)" d="m0 0h5l-1 2h-2v2l-15 6-16 8-18 10-18 11h-4v-2l22-13 23-13 19-9z" fill="#4B2E1F"/>
<path transform="translate(1303,1044)" d="m0 0h125l-1 2-36 1h-17l-71-2z" fill="#C1BEB8"/>
<path transform="translate(996,427)" d="m0 0 1 2 5 1 15 5 20 4 23 1 2 2h-22l21 1v1l-11 1-18-2-20-5-11-5h-2l-1 2-2-3z" fill="#C28870"/>
<path transform="translate(1240,1146)" d="m0 0h2l-2 5-7 7-4 1 1 3-6 2-19 10-17 6-17 4v2l-9-2v-1l9-2 7-2 16-4 18-8 12-7h2l2-4 5-2z" fill="#AC7F73"/>
<path transform="translate(1301,894)" d="m0 0v3l-14 11-7 3-17 4-4 3-1 3h-2l-1 14-3 3h-1v-8l3-14 9-6 19-3 10-6z" fill="#43281C"/>
<path transform="translate(848,961)" d="m0 0 4 1-8 2-2 6-9 10-4 4-4-2-1-5 10-12 7-3z" fill="#CFA38C"/>
<path transform="translate(866,982)" d="m0 0 4 2 4 3 7 3 9 4h5l1 3-5 1-2 5-7 4-2 1h-9v-1l10-1-2-8-8-10-5-4z" fill="#739EB4"/>
<path transform="translate(826,690)" d="m0 0h13l10 5 8 9 2 4-1 4-4-7-7-6-8-4h-13l-7 2-9 7-3 2 2-5 8-7z" fill="#4D3428"/>
<path transform="translate(548,703)" d="m0 0 2 3 2 5v3h2l9 25 10 19v3l-4-2-11-21-9-24-1-4z" fill="#462A1D"/>
<path transform="translate(1137,847)" d="m0 0 3 3 14 22 7 6 31 15 7 3 1 5-3 3v-6l-6-1-19-10-13-7-7-6-15-25z" fill="#432B20"/>
<path transform="translate(700,806)" d="m0 0 3 1-9 6-3 3-5 10h-4v-10l-1-3-5-2v-2l-4-1 3-1 3 1h14l7-1z" fill="#E2DFD9"/>
<path transform="translate(905,787)" d="m0 0h2l-1 11 2 1-5 7-4 3-2-1 1-5-5 3h-2l-1 5-5 8h-2l2-6 6-17 4-2-1 9 4-2 1-3 3-3z" fill="#8C675C"/>
<path transform="translate(680,754)" d="m0 0h12l10 4 8 9 2 4-1 3-7-9-8-5-3-1h-15l-9 4-4 2-2 4v-3l5-6 6-4z" fill="#493127"/>
<path transform="translate(661,617)" d="m0 0 4 2 9 7 7 4-2 2 5 6-2 1-4-2-5-1-5-3v-2l-3-1-4-5z" fill="#E1AB8B"/>
<path transform="translate(855,625)" d="m0 0h2l1 5-1 5 3-4 6 1 8 5 1 3 3-3 1 1v5l-5 4h-3l-4-11h-2l2 3v3h-6l1-9-4 5-4 1-1-10z" fill="#563623"/>
<path transform="translate(651,644)" d="m0 0h1l-1 9-6 17-10 22-4 6h-2l-1 3h-3l-2 5-2 1 1-4 10-15 10-19 6-15z" fill="#C9A797"/>
<path transform="translate(802,810)" d="m0 0h14l4 1v2h-11l-16 3-14 5-11 8-4 5-3-1 7-8 9-7 15-6z" fill="#4B2D1F"/>
<path transform="translate(736,421)" d="m0 0h11v2l-27 6-18 6-4 1-1-3 15-6 19-5z" fill="#4C2E1F"/>
<path transform="translate(823,681)" d="m0 0 2 1-2 4-8 3-6 1h-12l-3-6 5-1h13z" fill="#41261B"/>
<path transform="translate(844,608)" d="m0 0h3l-1 3-22 8-22 6h-11l2-2 14-3 9-3z" fill="#472B1D"/>
<path transform="translate(825,948)" d="m0 0 2 1-10 9-1 5-5 5-4 7 1 21 2 5 5 1v1h-6l-3-4-2-6v-19l6-11h2l2-5 4-6z" fill="#BAB5B0"/>
<path transform="translate(705,633)" d="m0 0 8 1 17 3h40l-2 2-19 4h-27v-1l24-1-1-1-25-2-14-3z" fill="#593825"/>
<path transform="translate(966,947)" d="m0 0 5 1 5 6v3h-2l-1 3-4-3-2 2-2 6-4-5-1-1 1-7z" fill="#CB8F74"/>
<path transform="translate(845,601)" d="m0 0 2 1v2 3l-9 4-26 8-8 1 2-2 24-9z" fill="#DFB198"/>
<path transform="translate(775,634)" d="m0 0h9v2l-10 4-23 4h-30l-11-2v-1l12 1h27l19-4-10-1v-1z" fill="#BD8672"/>
<path transform="translate(542,541)" d="m0 0 4 2-11 8-9 11-4 7v4l2 2-5 3-3-1 3-10 6-10 8-9z" fill="#4B2E1F"/>
<path transform="translate(382,906)" d="m0 0h29v21l-2-4-1-10-1-3-2 1-14-1-9-2z" fill="#CD9175"/>
<path transform="translate(701,544)" d="m0 0 4 1 8 8 13 9 16 8 19 6v1l-10-1-16-6-16-9-13-11z" fill="#B08579"/>
<path transform="translate(765,744)" d="m0 0 2 2v13l-3 4-15-2v7l3 7v3l-3-1-4-7v-9l4-3 15 1 1-10z" fill="#45291C"/>
<path transform="translate(665,739)" d="m0 0 4 1-1 7-4 6-6 7-6 2 1-4 6-8z" fill="#42281C"/>
<path transform="translate(302,1170)" d="m0 0 4 3v2l25 10 7 1v1h-15l-10-4-8-4v-2h-2z" fill="#BBB6B2"/>
<path transform="translate(678,631)" d="m0 0 7 1 13 5v2l2 1-1 1-10-1 3 3-7-1-7-4 1-2 3 1z" fill="#E9B898"/>
<path transform="translate(749,761)" d="m0 0h9l4 2-4 7-6 5-3-4-1-8z" fill="#E3B191"/>
<path transform="translate(695,434)" d="m0 0h3v3l-15 8-12 9-6 6-3-1 8-9 14-10z" fill="#482B1E"/>
<path transform="translate(645,650)" d="m0 0 1 2-8 18-11 19-3-1 1-5 9-14 10-18z" fill="#D8C1B3"/>
<path transform="translate(356,942)" d="m0 0h55v2l-52 1z" fill="#58626A"/>
<path transform="translate(959,954)" d="m0 0h1l2 6 2 5-3 8 5-2 4-3 1 3-2 6v2h-7l-2-2-1-9z" fill="#BBB6B2"/>
<path transform="translate(658,572)" d="m0 0 4 1 10 7 17 8 17 5v2l-8-1-19-7-14-8-7-5z" fill="#AA8278"/>
<path transform="translate(591,535)" d="m0 0h5l-1 2h-2v2l-15 6-13 6-3-1 3-3 21-10z" fill="#472B1D"/>
<path transform="translate(1014,1157)" d="m0 0 4 2 1 2v8l-5 3-3-1h-4l1-6h3l2-7z" fill="#484D54"/>
<path transform="translate(675,1046)" d="m0 0 10 2 6 2 1 2-9 1-7 5h-2v-7z" fill="#4D5259"/>
<path transform="translate(1040,985)" d="m0 0 2 1 6 17 2 2v9l-3 3v-3h-2l-4-24z" fill="#7DA1B4"/>
<path transform="translate(860,574)" d="m0 0 2 2-6 4-7 4-2-1 6-4h2v-2l-26 3-13-1v-1l24-2z" fill="#92787B"/>
<path transform="translate(1201,1172)" d="m0 0 4 2-17 6-17 4v2l-9-2v-1l9-2 7-2 16-4z" fill="#9F7B77"/>
<path transform="translate(568,560)" d="m0 0 3 1-6 8-12 13-3 3 1-7 12-13z" fill="#573724"/>
<path transform="translate(684,623)" d="m0 0 6 1 17 5 12 2v1h-5v2l3 1-8-1-20-7-5-3z" fill="#CC9D88"/>
<path transform="translate(847,582)" d="m0 0m-2 1h2v2l-20 7-16 5-10 2-2-2 23-6z" fill="#9E7D79"/>
<path transform="translate(559,731)" d="m0 0 2 3 9 19 3 5v3l-4-2-11-21z" fill="#4C2E1F"/>
<path transform="translate(330,972)" d="m0 0 6 2v4h-23l-2-2 5-3 9 2h2v-2z" fill="#B9816D"/>
<path transform="translate(883,791)" d="m0 0h1l-1 9-6 8-4 7-6 6h-2l2-4 7-10 7-12z" fill="#4E3020"/>
<path transform="translate(775,873)" d="m0 0h12l4 5 5 1 4 1 7 6 5 1v1l-11-1-10-6-5-5v-2h-11z" fill="#D3BAA7"/>
<path transform="translate(693,770)" d="m0 0 4 2-1 7-2 2-6-1-1-7 2-2z" fill="#EAE6E4"/>
<path transform="translate(794,598)" d="m0 0h7l-1 2-24 4h-20v-1l34-4z" fill="#AB8277"/>
<path transform="translate(822,880)" d="m0 0h8l-1 3-10 4h-12l-2-2 1-2 5 2h5l1-3z" fill="#E1B89B"/>
<path transform="translate(357,1171)" d="m0 0 8 2 7-2 2 1-1 4-7 2h-10l3-2z" fill="#BFB3AB"/>
<path transform="translate(1076,438)" d="m0 0h5v2l-10 3-10 1-21-1-5-1v-1h27l11-2z" fill="#573624"/>
<path transform="translate(1137,847)" d="m0 0 3 3 14 22 7 6 2 1v2l-5-2-6-5-15-25z" fill="#4B2D1F"/>
<path transform="translate(1385,1101)" d="m0 0 7 1v7l-2 2-5-1-1-1v-7z" fill="#C1BEB8"/>
<path transform="translate(804,1017)" d="m0 0 4 1-3 3-17 8-10 3-2-2 11-4 8-4 8-2z" fill="#6E93A7"/>
<path transform="translate(780,1271)" d="m0 0h3l-1 5-10 5-4 1 1-4 5-4z" fill="#EAB795"/>
<path transform="translate(355,346)" d="m0 0h4l-1 3-5 2h-23l3-2 14-1z" fill="#6F5347"/>
<path transform="translate(313,1149)" d="m0 0h11l4 2h-9l-16 3h-4l-1 2h-6l-2 1 1-3 16-4z" fill="#C4C2BB"/>
<path transform="translate(393,1172)" d="m0 0 5 5 1 2h-2l1 6 4 12-1 2-6-13-2-5z" fill="#C5C3BC"/>
<path transform="translate(236,1093)" d="m0 0h5l2 2-1 7-7-1v-7z" fill="#99928F"/>
<path transform="translate(1014,984)" d="m0 0h11v1l-15 2-1 5v11l1 12-2-4-2-12v-8l4-6z" fill="#BBB6B2"/>
<path transform="translate(828,610)" d="m0 0 2 1-1 3-21 6-4-1z" fill="#CB9C87"/>
<path transform="translate(856,738)" d="m0 0 5 1 5 5v4h-5l-5-6z" fill="#F4F4F2"/>
<path transform="translate(523,560)" d="m0 0 2 4-3 5v4l2 2-5 3-3-1 3-10z" fill="#563523"/>
<path transform="translate(701,544)" d="m0 0 4 1 8 8 13 9v2l-5-2-13-10-7-7z" fill="#AA918D"/>
<path transform="translate(721,1259)" d="m0 0h2l-1 4-8 9-1 2h-3l1-5 8-9z" fill="#EAB795"/>
<path transform="translate(634,688)" d="m0 0 1 4-4 6h-2l-1 3h-3l-2 5-2 1 1-4 9-13z" fill="#DFAB8C"/>
<path transform="translate(718,1276)" d="m0 0 7 1h11l12-1 5 4-29-1-6-2z" fill="#BBB6B2"/>
<path transform="translate(996,427)" d="m0 0 1 2 5 1 15 5-8 2-8-4h-2l-1 2-2-3z" fill="#C78C72"/>
<path transform="translate(898,636)" d="m0 0 4 1 3 1 2 4 2 10-5-5-3-5-2-1z" fill="#B38678"/>
<path transform="translate(407,1209)" d="m0 0 3 1 6 9 11 11-1 2-8-7-9-11z" fill="#C0BDB7"/>
<path transform="translate(736,421)" d="m0 0h11v2l-15 3-4-1-2-2z" fill="#533322"/>
<path transform="translate(825,948)" d="m0 0 2 1-10 9-1 5-4 3h-2v-3h2l2-5 4-6z" fill="#CAA895"/>
<path transform="translate(691,859)" d="m0 0h8l1 5-3 3h-2l-5-5z" fill="#E9B795"/>
<path transform="translate(973,962)" d="m0 0 2 2 1 5-5 8h-3l3-11z" fill="#BA8977"/>
<path transform="translate(661,617)" d="m0 0 4 2 9 7 2 2h-4l-10-5-1-1z" fill="#E4B79D"/>
<path transform="translate(319,1150)" d="m0 0 12 1 6 3-4 1-6-2h-14l-14 3v-2z" fill="#E8C3AA"/>
<path transform="translate(650,823)" d="m0 0 10 3 8 4v2l-6-1-12-6z" fill="#C58B72"/>
<path transform="translate(808,619)" d="m0 0 4 1-2 3-8 2h-11l2-2 14-3z" fill="#42271B"/>
<path transform="translate(844,608)" d="m0 0h3l-1 3-17 6-2-1 2-3z" fill="#593825"/>
<path transform="translate(789,1294)" d="m0 0h27v2l-9 2-15-2z" fill="#BBB6B2"/>
<path transform="translate(632,675)" d="m0 0 1 3-6 11-3-1 1-5 5-7z" fill="#DECBBF"/>
<path transform="translate(860,574)" d="m0 0 2 2-6 4-7 4-2-1 6-4h2v-2h-9l3-2z" fill="#95797A"/>
<path transform="translate(558,533)" d="m0 0h3l-1 3-12 6h-4v-2z" fill="#492C1E"/>
<path transform="translate(819 1e3)" d="m0 0 7 1 1 2-5-1-9 6-3-5z" fill="#616369"/>
<path transform="translate(664,797)" d="m0 0 4 5 5 5-2 1 1 2-4-2-6-6 1-4z" fill="#D6B6A2"/>
<path transform="translate(639,681)" d="m0 0 2 1 1 5-4 6-4 2 1-5z" fill="#583724"/>
<path transform="translate(806,623)" d="m0 0h8l-1 3-6 2h-9l4-4z" fill="#E8B799"/>
<path transform="translate(965,952)" d="m0 0h2v7l-2 6-4-5-1-5 2-1v3l2-1z" fill="#C89A84"/>
<path transform="translate(712,771)" d="m0 0 2 2 1 4v12l-2 5-1-4v-11l-2-6z" fill="#B88776"/>
<path transform="translate(623,686)" d="m0 0 3 3-2 5-3 4h-2l-1-5z" fill="#E3B59B"/>
<path transform="translate(775,634)" d="m0 0h9v2l-10 4h-5l4-1v-2l-5-1v-1z" fill="#C58B72"/>
<path transform="translate(722,424)" d="m0 0h9l-3 1v2l-8 2h-6l1-3z" fill="#4A2D1F"/>
<path transform="translate(354,1178)" d="m0 0h5l-5 5-9 4-7-1v-1l11-3 5-2z" fill="#C0BCB7"/>
<path transform="translate(802,810)" d="m0 0h14l4 1v2h-20z" fill="#4C2E1F"/>
<path transform="translate(894,731)" d="m0 0 4 1 8 7 1 3-5-1-5-5z" fill="#9F7465"/>
<path transform="translate(805,706)" d="m0 0h3l-2 7-1 15-2-2v-14z" fill="#B99485"/>
<path transform="translate(875,806)" d="m0 0h1v5l-9 10h-2l2-4z" fill="#482B1E"/>
<path transform="translate(648,646)" d="m0 0h1v8l-3 8-4-3z" fill="#43281B"/>
<path transform="translate(709,1257)" d="m0 0h3l-1 4-5 8h-3l1-4 3-6z" fill="#EAB795"/>
<path transform="translate(418,1206)" d="m0 0 6 2 4 5v2l-6-1-2-1z" fill="#95797C"/>
<path transform="translate(684,1127)" d="m0 0 2 1 5 17-1 4-4-10-2-7z" fill="#55595F"/>
<path transform="translate(840,968)" d="m0 0 1 3-10 12-3 1 1-4z" fill="#472D21"/>
<path transform="translate(651,644)" d="m0 0h1l-1 9-5 14-2-1 3-9z" fill="#B38678"/>
<path transform="translate(706,594)" d="m0 0 11 2 10 2-3 2-8-1-11-3z" fill="#9D7C78"/>
<path transform="translate(805,726)" d="m0 0 2 3 3 4 4 5 3 3-1 2-7-6-4-4-1-5z" fill="#D1C2B8"/>
<path transform="translate(695,434)" d="m0 0h3v3l-13 6 2-5z" fill="#482C1E"/>
<path transform="translate(1172,1180)" d="m0 0h9l-1 2-9 2v2l-9-2v-1l9-2z" fill="#A57D76"/>
<path transform="translate(340,1157)" d="m0 0 4 2 11 9 2 4-4-2-9-8-4-4z" fill="#DDC3B0"/>
<path transform="translate(884,801)" d="m0 0 3 1-1 5-7 6-3-1 7-7z" fill="#513221"/>
<path transform="translate(883,797)" d="m0 0 6 2 1 2-3 10-2-4 1-5-2-1-1 4z" fill="#AF8174"/>
<path transform="translate(711,792)" d="m0 0h3l-1 7-5 6-3 1 2-5z" fill="#E5B798"/>
<path transform="translate(912,587)" d="m0 0 5 1 1 2v7l-5-3z" fill="#593825"/>
<path transform="translate(867,1238)" d="m0 0h11l1 5-6-1-6-2z" fill="#D1B3A2"/>
<path transform="translate(661,767)" d="m0 0 1 4-3 11-1 8h-1v-13z" fill="#BF9684"/>
<path transform="translate(765,744)" d="m0 0 2 2v13l-3 4-6-1 3-2 3-1 1-10z" fill="#513221"/>
<path transform="translate(568,560)" d="m0 0 3 1-6 8-4 1-3 2 2-4z" fill="#462A1D"/>
<path transform="translate(573,543)" d="m0 0h3v3l-11 5-3-1 3-3z" fill="#472B1D"/>
<path transform="translate(890,805)" d="m0 0 1 4-6 10h-2l2-6 3-6z" fill="#482B1E"/>
<path transform="translate(565,749)" d="m0 0h3l5 9v3l-4-2-4-8z" fill="#492C1E"/>
<path transform="translate(859,709)" d="m0 0 2 3 1 5v7l-2 3-1-13h-2l1-4z" fill="#B38A7E"/>
<path transform="translate(658,572)" d="m0 0 4 1 10 7 2 1v2l-6-2-10-7z" fill="#AE897F"/>
<path transform="translate(837,964)" d="m0 0 2 1-4 5-7 6-2-1 8-10z" fill="#593825"/>
<path transform="translate(967,949)" d="m0 0h3l4 6-1 5-4-3z" fill="#B9816D"/>
<path transform="translate(797,811)" d="m0 0 4 1v2l-8 2h-5l1-3z" fill="#482C1E"/>
<path transform="translate(525,627)" d="m0 0h1l-1 8-2 5-3-1 3-10z" fill="#482C1E"/>
<path transform="translate(1010,435)" d="m0 0 11 2 5 2v2l-11-2-3-1v-2z" fill="#BF866F"/>
<path transform="translate(810,956)" d="m0 0h4l-1 5-1 2h-2l-1 4h-2z" fill="#79A0B4"/>
<path transform="translate(893,794)" d="m0 0 2 1-3 11-4 1 2-8z" fill="#734E3D"/>
<path transform="translate(1240,1146)" d="m0 0h2l-2 5-7 7-4-1 10-9z" fill="#8D7575"/>
<path transform="translate(376,1061)" d="m0 0 4 1 1 5-5 1-1-1v-5z" fill="#4D3832"/>
<path transform="translate(1259,917)" d="m0 0h1v13h-3v-9z" fill="#58626A"/>
<path transform="translate(873,637)" d="m0 0h1l1 3 3-3 1 1v5l-3 3-3-1z" fill="#856053"/>
<path transform="translate(870,635)" d="m0 0 3 2 1 10h-3l-2-5z" fill="#533727"/>
<path transform="translate(684,632)" d="m0 0 14 5-4 2-4-1-6-3z" fill="#D9AB93"/>
<path transform="translate(704,761)" d="m0 0 5 5 3 5-1 3-7-9-2-2h2z" fill="#5C3E2E"/>
<path transform="translate(855,625)" d="m0 0h2l1 5-3 6-2-3 1-7z" fill="#533422"/>
<path transform="translate(292,1155)" d="m0 0h6v2h-3l4 7-4-2-4-3z" fill="#E9BDA0"/>
<path transform="translate(541,595)" d="m0 0 1 3-5 9h-3l2-6 3-5z" fill="#482B1E"/>
<path transform="translate(811,594)" d="m0 0h5l-1 2-11 3-5-1 4-2z" fill="#A27E78"/>
<path transform="translate(666,453)" d="m0 0 2 1-5 5v3l-4 1-5 4 2-4z" fill="#4C2F1F"/>
<path transform="translate(1386,1103)" d="m0 0h5v5l-5 1-1-4z" fill="#6B5F62"/>
<path transform="translate(851,996)" d="m0 0 5 2 6 3 2 3v3h-2l-4-5-7-5z" fill="#7F777A"/>
<path transform="translate(618,702)" d="m0 0 1 2 2 1-6 7h-2l1-4z" fill="#573624"/>
<path transform="translate(880,964)" d="m0 0 5 2 4 4v2l3 1 1 4-6-5v-2l-4-2z" fill="#6F6A70"/>
<path transform="translate(851,753)" d="m0 0h2l4 6 1 4-5-2-2-5z" fill="#E8B99A"/>
<path transform="translate(529,618)" d="m0 0 1 4-3 7-3-1 3-9z" fill="#4B2E1F"/>
<path transform="translate(583,538)" d="m0 0 3 1-2 1 1 2-9 3-1-3z" fill="#4D2F20"/>
<path transform="translate(701,1254)" d="m0 0h2l-1 4-4 5h-2l1-5z" fill="#EAB795"/>
<path transform="translate(866,982)" d="m0 0 4 2 8 6-1 3h-2l-7-8-2-1z" fill="#716F73"/>
<path transform="translate(662,818)" d="m0 0 9 3 5 3-3 1-11-5z" fill="#CD9175"/>
<path transform="translate(553,712)" d="m0 0 3 3 4 11v2h-2l-5-14z" fill="#A98179"/>
<path transform="translate(816,695)" d="m0 0m-2 1 4 2-8 6-3 2 2-5z" fill="#543729"/>
<path transform="translate(670,450)" d="m0 0h2l-1 4-6 6-3-1z" fill="#462A1D"/>
<path transform="translate(732,1262)" d="m0 0h2l-1 4-5 3h-2l1-4z" fill="#EAB795"/>
<path transform="translate(1324,687)" d="m0 0h2l7 13-1 2-6-9z" fill="#6C6B71"/>
<path transform="translate(634,688)" d="m0 0 1 4-4 4-3 1 1-4z" fill="#E3B69C"/>
<path transform="translate(758,636)" d="m0 0h17l-2 1v2l-8 1 3-2-10-1z" fill="#AA7F75"/>
<path transform="translate(1354,619)" d="m0 0h2l-1 6-4 7-1-4z" fill="#715247"/>
<path transform="translate(982,1116)" d="m0 0h2l-1 7-2 3h-2l1-6z" fill="#484D54"/>
<path transform="translate(848,961)" d="m0 0 4 1-8 2-1 3h-2v-3l-2-1z" fill="#5D3E2D"/>
<path transform="translate(906,642)" d="m0 0 4 4 4 7-1 4-3-6-2-1z" fill="#C6A392"/>
<path transform="translate(893,1242)" d="m0 0h6v6l-4-1z" fill="#4B4F54"/>
<path transform="translate(1301,894)" d="m0 0v3l-11 9-2-2z" fill="#52382A"/>
<path transform="translate(787,814)" d="m0 0 2 1 1 2-10 3-1-3z" fill="#4D2F20"/>
<path transform="translate(886,739)" d="m0 0 7 6 6 4v2l-5-2-8-8z" fill="#593825"/>
<path transform="translate(635,696)" d="m0 0 2 1-4 8-2-3 1-4z" fill="#EAB795"/>
<path transform="translate(643,666)" d="m0 0h2l-1 6-2 5h-3l2-6z" fill="#B99F95"/>
<path transform="translate(645,650)" d="m0 0 1 2-5 11-2-1 2-6z" fill="#BF9C8F"/>
<path transform="translate(826,614)" d="m0 0h5l-4 4-6 1v-2l-2-1z" fill="#492D1E"/>
<path transform="translate(650,472)" d="m0 0 1 3-5 5-3 1 2-5z" fill="#472B1D"/>
<path transform="translate(996,427)" d="m0 0 1 2 5 1 3 2-6 1-1 2-2-3z" fill="#CA8E73"/>
<path transform="translate(561,549)" d="m0 0 2 1 1 2-9 4-1-3z" fill="#4C2F1F"/>
</svg>
